<?xml version="1.0" encoding="UTF-8"?><svg id="Ebene_4" xmlns="http://www.w3.org/2000/svg" viewBox="0 0 189.92 51.02"><g><path d="M175.04,21.25c-8.22,0-14.89,6.66-14.89,14.88s6.67,14.88,14.89,14.88,14.88-6.66,14.88-14.88-6.66-14.88-14.88-14.88Zm-4.75,10.14c0-1.29,.53-2.46,1.37-3.31,.85-.84,2.02-1.37,3.31-1.37,2.58,0,4.68,2.1,4.68,4.68v1.39h-1.7v-1.39c0-.82-.33-1.56-.87-2.1-.54-.54-1.29-.87-2.11-.87-1.64,0-2.98,1.33-2.98,2.97v1.39h-1.7v-1.39Zm11.41,11.9c0,.51-.42,.93-.93,.93h-11.6c-.51,0-.93-.42-.93-.93v-8.92c0-.51,.42-.93,.93-.93h11.6c.51,0,.93,.42,.93,.93v8.92Z" style="fill:#6e6e6e;"/><path d="M176.67,37.13c0,.64-.36,1.19-.88,1.48v3.57h-1.7v-3.6c-.49-.3-.82-.84-.82-1.45,0-.94,.76-1.7,1.7-1.7s1.7,.76,1.7,1.7Z" style="fill:#6e6e6e;"/></g><g><path d="M2.81,44.49V24.29c0-.46-.12-.74-.54-.87L0,22.63l.45-3.35H8.96v11.47l.16,.04c1.78-1.45,3.72-2.23,6.24-2.23,4.46,0,7.97,2.9,7.97,10.6,0,8.53-3.59,11.88-8.67,11.88-2.73,0-4.79-1.16-6.07-2.61l-.21,.04-.29,2.07H2.19c.29-1.86,.62-4.01,.62-6.04Zm9.99,1.7c2.73,0,4.01-2.57,4.01-6.71,0-3.23-1.03-6.04-3.8-6.04-1.49,0-3.02,.79-4.01,1.45v9.69c.95,.87,2.35,1.61,3.8,1.61Z" style="fill:#011d33;"/><path d="M39.97,48.25c-1.69,1.28-3.84,2.77-7.35,2.77-4.34,0-5.99-2.48-5.99-7.28v-10.1c0-.66-.04-.74-.66-.87l-1.98-.41,.41-3.4h8.47v13.7c0,2.52,.41,3.48,2.19,3.48s3.3-1.03,4.25-1.9v-10.64c0-.66-.04-.7-.66-.83l-1.78-.41,.45-3.4h8.22v17.18c0,.54,.08,.7,.58,.79l2.06,.29v3.31h-7.68l-.33-2.23-.21-.04Z" style="fill:#011d33;"/><path d="M62.61,33.52c-1.53,0-3.43,.87-4.29,1.53v11.09c0,.66,.04,.74,.66,.83l1.98,.29v3.27h-11.4v-3.31l1.86-.25c.58-.08,.66-.21,.66-.83v-12.17c0-.46-.12-.74-.54-.87l-2.23-.79,.5-3.35h7.23l.33,2.15,.16,.08c2.07-1.53,4.46-2.65,7.27-2.65,4.5,0,6.24,2.48,6.24,7.04v10.56c0,.66,.04,.74,.66,.83l2.07,.29v3.27h-8.96v-13.37c0-1.99-.12-3.64-2.19-3.64Z" style="fill:#011d33;"/><path d="M89.07,48.17c-1.73,1.7-3.76,2.86-6.77,2.86-4.87,0-8.01-3.1-8.01-11.01,0-8.32,4.17-11.47,8.76-11.47,2.4,0,4.25,.83,5.82,1.99v-6.29c0-.41-.17-.7-.54-.83l-2.27-.79,.45-3.35h8.3v26.91c0,.62,.04,.7,.66,.79l1.98,.29v3.27h-7.68l-.41-2.32-.29-.04Zm-4.01-14.82c-3.06,0-4.25,2.86-4.25,6.54,0,4.02,1.16,6.25,3.76,6.25,1.4,0,2.93-.83,4.05-1.78v-9.77c-1.03-.7-2.35-1.24-3.55-1.24Z" style="fill:#011d33;"/></g><g><path d="M113.27,48.32c.56-.04,.64-.2,.72-.79l3.18-22.62c.08-.59,.04-.75-.52-.79l-2.78-.28,.24-1.94h10.66l-.24,1.94-3.02,.32c-.6,.08-.64,.16-.72,.75l-3.22,22.58c-.08,.63-.08,.71,.52,.79l2.94,.32-.2,1.94h-10.66l.2-1.94,2.9-.28Z" style="fill:#6e6e6e;"/><path d="M126.96,48.28c.48-.04,.6-.16,.68-.71l3.18-22.66c.08-.59,0-.75-.52-.79l-2.43-.28,.28-1.94h11.65c8.55,0,12.29,4.63,12.29,11.67,0,9.81-5.25,16.96-16.82,16.96h-11.1l.32-1.98,2.47-.28Zm21.4-14.59c0-6.72-3.66-8.98-9.58-8.98h-4.33l-3.18,23.01h4.26c8.35,0,12.85-5.46,12.85-14.04Z" style="fill:#6e6e6e;"/></g><circle cx="104.81" cy="3.12" r="3.12" style="fill:#00050a;"/><circle cx="104.81" cy="13.04" r="3.12" style="fill:#d24614;"/><circle cx="104.81" cy="22.96" r="3.12" style="fill:#ffc138;"/></svg>