<svg xmlns="http://www.w3.org/2000/svg" viewBox="0 0 77.59 55.02"><defs><style>.cls-1{fill:none;stroke:#000;stroke-linejoin:round;stroke-width:2px;}</style></defs><g id="Layer_2" data-name="Layer 2"><g id="Icons"><path class="cls-1" d="M18.85,52.07a3.21,3.21,0,0,1-2.59-1.31,3.23,3.23,0,0,1-5.82-1.92V25.75A24.21,24.21,0,0,1,1.64,14.9l0-.12c-1.24-2.52-.3-3.66.71-4.17a3,3,0,0,1,1.36-.36A3,3,0,0,1,6.2,12c.8,1.41,3.77,6.1,8.14,7.66l.13,0,2.16,2.16,2.07-2.26.3,0c3.92.26,5.74,2.37,5.74,6.66l0,8a2.85,2.85,0,0,1-2.62,2.9l0,11.6A3.23,3.23,0,0,1,18.85,52.07Z"/><path class="cls-1" d="M20.21,14.34a5,5,0,1,1-2.1-7.83"/><path class="cls-1" d="M41.92,54a3.65,3.65,0,0,1-3-1.62,3.68,3.68,0,0,1-6.73-2.06V23.2A28.33,28.33,0,0,1,21.83,10.48l-.07-.15c-1.41-2.87-.35-4.16.79-4.74a3.42,3.42,0,0,1,1.54-.41,3.4,3.4,0,0,1,2.89,2c.95,1.65,4.44,7.18,9.6,9l.14.05,2.59,2.59,2.47-2.69.3,0c4.53.29,6.64,2.74,6.64,7.71l0,9.4a3.24,3.24,0,0,1-3.07,3.3l0,13.71A3.67,3.67,0,0,1,41.92,54Z"/><path class="cls-1" d="M38.9,12.6a5.8,5.8,0,1,1,5.79-5.8A5.81,5.81,0,0,1,38.9,12.6Z"/><path class="cls-1" d="M63.92,52.07a3.21,3.21,0,0,1-2.59-1.31,3.23,3.23,0,0,1-5.83-1.92l0-11.6a2.85,2.85,0,0,1-2.62-2.9l0-8c0-4.3,1.83-6.41,5.75-6.67l.3,0L61,21.9l2.15-2.16.14,0c4.37-1.56,7.33-6.25,8.14-7.66a2.72,2.72,0,0,1,3.9-1.42c1,.51,1.94,1.65.71,4.17l-.06.12a24.15,24.15,0,0,1-8.79,10.85V48.84A3.23,3.23,0,0,1,63.92,52.07Z"/><path class="cls-1" d="M61.31,16.24a5,5,0,1,1,5-5A5,5,0,0,1,61.31,16.24Z"/></g></g></svg>
