<svg xmlns="http://www.w3.org/2000/svg" viewBox="0 0 73.78 62.84"><defs><style>.cls-1,.cls-2,.cls-3,.cls-4{fill:none;stroke:#000;stroke-width:2px;}.cls-1,.cls-2{stroke-linejoin:round;}.cls-2,.cls-3{stroke-linecap:round;}.cls-3,.cls-4{stroke-miterlimit:10;}</style></defs><g id="Layer_2" data-name="Layer 2"><g id="Icons"><path class="cls-1" d="M15.3,23.17a6.41,6.41,0,1,0-6.41-6.41A6.41,6.41,0,0,0,15.3,23.17Z"/><path class="cls-2" d="M37.16,12.71a5.86,5.86,0,1,0-5.85-5.86A5.85,5.85,0,0,0,37.16,12.71Z"/><path class="cls-1" d="M47.55,27.9l0-4c0-5.49-2.37-7.73-6.85-8l-3.56,3-3.56-3c-4.48.29-6.85,2.53-6.85,8v4"/><path class="cls-1" d="M10.31,35l3.12,5.81A3.45,3.45,0,0,0,16.59,43H25c1.87,0,3-.91,3-2.6a2.33,2.33,0,0,0-1.69-2.47l-7.2-.88-3-6.48c-1.39-3.42-3.82-4.9-6.47-4.9-3.63,0-6.37,2.13-7.14,7L1,44.29"/><line class="cls-3" x1="24.97" y1="34.99" x2="25.7" y2="37.58"/><path class="cls-4" d="M23.93,52.78V51.73c0-3.71,2.7-7.42,10-7.42h6.36c7.14,0,9.88,3.46,9.88,7.41v1.06"/><path class="cls-4" d="M37,40.69a7.49,7.49,0,1,0-7.48-7.48A7.48,7.48,0,0,0,37,40.69Z"/><path class="cls-1" d="M22.16,62.84V56.08a3.52,3.52,0,0,1,3.53-3.52H48.37a3.52,3.52,0,0,1,3.53,3.52v6.76"/><polyline class="cls-1" points="60.12 41.25 65.17 51.53 53.43 51.53"/><polyline class="cls-1" points="45.28 27.9 53.62 27.9 56.34 33.45"/><polyline class="cls-1" points="17.57 33.73 20.42 27.9 28.7 27.9"/><polyline class="cls-1" points="20.14 51.53 8.89 51.53 13.8 41.46"/><path class="cls-1" d="M58.48,23.17a6.41,6.41,0,1,1,6.41-6.41A6.41,6.41,0,0,1,58.48,23.17Z"/><path class="cls-1" d="M63.47,35l-3.12,5.81A3.44,3.44,0,0,1,57.19,43H48.76c-1.87,0-3-.91-3-2.6a2.33,2.33,0,0,1,1.68-2.47l7.2-.88,3-6.48c1.39-3.42,3.83-4.9,6.47-4.9,3.64,0,6.38,2.13,7.15,7l1.52,11.63"/></g></g></svg>
