<svg xmlns="http://www.w3.org/2000/svg" viewBox="0 0 69.15 52.25"><defs><style>.cls-1,.cls-2{fill:none;stroke:#000;stroke-linejoin:round;stroke-width:2px;}.cls-2{stroke-linecap:round;}</style></defs><g id="Layer_2" data-name="Layer 2"><g id="Icons"><path class="cls-1" d="M9.43,40.86a5.12,5.12,0,1,0-5.12-5.12A5.12,5.12,0,0,0,9.43,40.86Z"/><path class="cls-1" d="M31.13,35.74A5.12,5.12,0,1,0,26,40.86,5.12,5.12,0,0,0,31.13,35.74Z"/><path class="cls-1" d="M17,3.6C18.6,1.74,20.57.75,22.52,1.06c4,.64,6.42,6.6,5.35,13.31s-5.2,11.63-9.23,11a5.77,5.77,0,0,1-4-3.14"/><line class="cls-1" x1="7.87" y1="20.57" x2="14.96" y2="18.45"/><line class="cls-1" x1="16.29" y1="7.59" x2="9.99" y2="3.35"/><path class="cls-1" d="M25,10.61l-3.68-.36c-1.09-.18-2.2,1-2.48,2.72s.37,3.2,1.46,3.38l3.56.85"/><line class="cls-1" x1="6.86" y1="11.61" x2="14.55" y2="12.9"/><path class="cls-1" d="M41.51,51.88l3-14.79A25.19,25.19,0,0,1,30.07,25.93"/><line class="cls-1" x1="59.18" y1="43.98" x2="56.81" y2="51.88"/><path class="cls-1" d="M48.87,17.84a8.55,8.55,0,1,0,8.54-8.55A8.54,8.54,0,0,0,48.87,17.84Z"/><path class="cls-2" d="M23.48,23.55a81.24,81.24,0,0,1,13.62-.4,6,6,0,0,0,4.65-2.35,4.88,4.88,0,0,0,.67-9.08,6.56,6.56,0,0,0-4.35-3.48A37.21,37.21,0,0,1,25.4,2.66"/><path class="cls-1" d="M34.44,52.25V49.49a5.75,5.75,0,0,0-5-5.85L26,46.73l-3.44-3.06a5.87,5.87,0,0,0-4.85,4.56,5.71,5.71,0,0,0-4.85-4.56L9.43,46.73,6,43.65a5.77,5.77,0,0,0-5,5.84v2.76"/><path class="cls-1" d="M65.62,51.88s1.75-7.54,2.25-10.08c1.21-6.13-1.49-10.11-7.71-11.33L53.94,34.4l-4.76-6.11c-3.66-1-7.15-2.15-8.85-3.71"/></g></g></svg>
